<svg xmlns="http://www.w3.org/2000/svg" width="24" height="24" viewBox="0 0 24 24" >
    <g fill="none" fill-rule="evenodd">
        <g>
            <path fill="#FFF" d="M0 0H24V24H0z"/>
            <g>
                <path d="M0 0L24 0 24 24 0 24z" opacity=".87"/>
                <path fill="#000" fill-opacity=".74" d="M12 2C6.47 2 2 6.47 2 12s4.47 10 10 10 10-4.47 10-10S17.53 2 12 2zm0 18c-4.41 0-8-3.59-8-8s3.59-8 8-8 8 3.59 8 8-3.59 8-8 8zm3.59-13L12 10.59 8.41 7 7 8.41 10.59 12 7 15.59 8.41 17 12 13.41 15.59 17 17 15.59 13.41 12 17 8.41 15.59 7z"/>
            </g>
            <circle cx="12" cy="12" r="20"/>
        </g>
    </g>
</svg>
