<svg xmlns="http://www.w3.org/2000/svg" width="24" height="24" viewBox="0 0 24 24">
    <g fill="none" fill-rule="evenodd">
        <g>
            <path fill="#FFF" d="M0 0H24V24H0z"/>
            <g transform="translate(4.26 3)">
                <rect width="14.839" height="17.742" x=".323" y=".323" fill-rule="nonzero" stroke="#000" stroke-width=".645" rx=".968"/>
                <path fill="#000" d="M1.29 0.645L1.935 0.645 1.935 17.739 1.29 17.739z"/>
                <path fill="#000" d="M0.645 8.71L1.29 8.71 1.29 9.355 0.645 9.355z" transform="rotate(-90 .968 9.032)"/>
                <path fill="#000" d="M0.645 12.258L1.29 12.258 1.29 12.903 0.645 12.903z" transform="rotate(-90 .968 12.58)"/>
                <path fill="#000" d="M0.645 15.806L1.29 15.806 1.29 16.452 0.645 16.452z" transform="rotate(-90 .968 16.129)"/>
                <path fill="#000" d="M0.645 5.161L1.29 5.161 1.29 5.806 0.645 5.806z" transform="rotate(-90 .968 5.484)"/>
                <path fill="#000" d="M0.645 1.935L1.29 1.935 1.29 2.581 0.645 2.581z" transform="rotate(-90 .968 2.258)"/>
                <g>
                    <g>
                        <path fill-rule="nonzero" stroke="#000" stroke-width=".5" d="M4.415.34c.416 0 .794.172 1.068.45.276.277.446.66.446 1.081 0 .422-.17.805-.446 1.082-.274.277-.652.45-1.068.45-.417 0-.795-.173-1.069-.45-.275-.277-.446-.66-.446-1.082 0-.421.17-.804.446-1.082C3.62.512 3.998.34 4.415.34zM4.43 4.902c.837 0 1.633.18 2.352.496.282.123.514.323.676.57.16.246.25.539.25.849h0l-6.558.257c0-.567.09-.86.251-1.106.162-.247.394-.447.676-.57.72-.316 1.515-.495 2.352-.495z" transform="translate(4 5)"/>
                    </g>
                </g>
            </g>
        </g>
    </g>
</svg>
