<svg xmlns="http://www.w3.org/2000/svg" width="24" height="24" viewBox="0 0 24 24">
    <g fill="none" fill-rule="evenodd">
        <g>
            <path fill="#FFF" d="M0 0H24V24H0z"/>
            <g>
                <path d="M0 0L24 0 24 24 0 24z"/>
                <path fill="#000" fill-rule="nonzero" d="M6.463 3.226c3.095-2.968 7.98-2.968 11.074 0 3.095 2.969 3.3 7.85.463 11.066v7.726c0 .36-.194.692-.508.87-.313.177-.698.172-1.007-.013L12 20.184l-4.485 2.69c-.309.186-.694.191-1.007.014-.314-.178-.508-.51-.508-.87v-7.726c-2.836-3.217-2.632-8.097.463-11.066zM16 15.936c-2.472 1.442-5.528 1.442-8 0v4.316l3.485-2.091c.317-.19.713-.19 1.03 0L16 20.25zM12 3.018c-3.312.003-5.997 2.687-6 6 0 3.313 2.686 6 6 6s6-2.687 6-6c0-3.314-2.686-6-6-6zM12 5c2.21 0 4 1.79 4 4s-1.79 4-4 4-4-1.79-4-4 1.79-4 4-4zm0 1.5c-1.38 0-2.5 1.12-2.5 2.5s1.12 2.5 2.5 2.5 2.5-1.12 2.5-2.5-1.12-2.5-2.5-2.5z"/>
            </g>
        </g>
    </g>
</svg>
