<svg xmlns="http://www.w3.org/2000/svg" width="24" height="24" viewBox="0 0 24 24" >
    <g fill="none" fill-rule="evenodd">
        <g>
            <g >
                <path fill="#FFF" d="M18.117 12.783c.034-.25.051-.508.051-.783 0-.267-.017-.533-.06-.783l1.74-1.317c.154-.117.197-.342.102-.508l-1.645-2.767c-.102-.183-.317-.242-.505-.183l-2.048.8c-.428-.317-.882-.584-1.387-.784l-.309-2.116c-.034-.2-.205-.342-.411-.342h-3.29c-.206 0-.368.142-.403.342l-.308 2.116c-.505.2-.968.475-1.388.784l-2.047-.8c-.189-.067-.403 0-.506.183L4.067 9.392c-.103.175-.069.391.103.508l1.739 1.317c-.043.25-.077.525-.077.783s.017.533.06.783L4.152 14.1c-.154.117-.197.342-.102.508l1.645 2.767c.102.183.317.242.505.183l2.048-.8c.428.317.882.584 1.387.784l.309 2.116c.043.2.205.342.411.342h3.29c.206 0 .377-.142.403-.342l.308-2.116c.505-.2.968-.467 1.388-.784l2.047.8c.189.067.403 0 .506-.183l1.645-2.767c.103-.183.06-.391-.103-.508l-1.722-1.317zM12 15c-1.696 0-3.084-1.35-3.084-3S10.304 9 12 9c1.696 0 3.084 1.35 3.084 3S13.696 15 12 15z"/>
            </g>
        </g>
    </g>
</svg>
