<svg xmlns="http://www.w3.org/2000/svg" width="24" height="24" viewBox="0 0 24 24">
    <g fill="none" fill-rule="evenodd">
        <g>
            <g fill-rule="nonzero" stroke="#000" stroke-width=".581">
                <path d="M9 0c4.97 0 9 4.03 9 9s-4.03 9-9 9-9-4.03-9-9 4.03-9 9-9zm0 1.161c-4.33 0-7.839 3.51-7.839 7.839 0 4.33 3.51 7.839 7.839 7.839 4.33 0 7.839-3.51 7.839-7.839 0-4.33-3.51-7.839-7.839-7.839zm1.452 5.516c.48 0 .87.39.87.871v2.904c0 .48-.39.87-.87.87H7.548c-.48 0-.87-.39-.87-.87V7.548c0-.48.39-.87.87-.87h2.904z" transform="translate(3 3)"/>
            </g>
        </g>
    </g>
</svg>
