<svg xmlns="http://www.w3.org/2000/svg" width="24" height="24" viewBox="0 0 24 24">
    <g fill="none" fill-rule="evenodd">
        <g>
            <g>
                <g fill="#000" fill-rule="nonzero">
                    <path d="M.373 9.681c-.084.019-.156.07-.201.144-.045.073-.058.161-.036.244.188.715.47 1.398.84 2.03.043.073.115.126.198.146.083.02.171.006.244-.04.52-.334 1.352-.143 1.936.44.584.585.774 1.418.441 1.937-.046.073-.06.16-.04.244.02.083.073.155.147.198.631.37 1.314.652 2.029.84.083.022.17.009.244-.036.073-.045.125-.117.144-.201.132-.603.855-1.057 1.681-1.057.826 0 1.549.454 1.681 1.057.019.084.07.156.144.201.05.03.107.046.164.046.027 0 .054-.003.08-.01.715-.188 1.398-.47 2.03-.84.073-.043.126-.115.146-.198.02-.083.006-.171-.04-.244-.333-.52-.143-1.352.44-1.936.585-.584 1.418-.774 1.937-.441.073.046.16.06.244.04.083-.02.155-.073.198-.147.37-.632.652-1.315.84-2.029.022-.083.009-.171-.036-.244-.045-.073-.117-.125-.201-.144C15.024 9.55 14.57 8.826 14.57 8c0-.826.454-1.549 1.057-1.681.084-.019.156-.07.201-.144.045-.073.058-.161.036-.244-.188-.715-.47-1.398-.84-2.03-.043-.073-.115-.126-.198-.146-.084-.02-.171-.006-.244.04-.52.333-1.352.144-1.936-.44-.584-.585-.774-1.418-.441-1.937.046-.073.06-.16.04-.244-.02-.083-.073-.155-.147-.198-.631-.37-1.314-.652-2.029-.84-.083-.022-.171-.009-.244.036-.073.045-.125.117-.144.201C9.55.976 8.826 1.43 8 1.43c-.826 0-1.549-.454-1.681-1.057C6.3.289 6.249.217 6.175.172 6.102.127 6.014.114 5.931.136c-.715.188-1.398.47-2.03.84-.073.043-.126.115-.146.198-.02.083-.006.171.04.244.333.52.143 1.352-.44 1.936-.585.584-1.418.774-1.937.441-.073-.046-.16-.06-.244-.04-.083.02-.155.073-.198.147-.37.631-.652 1.314-.84 2.029-.022.083-.009.171.036.244.045.073.117.125.201.144C.976 6.45 1.43 7.174 1.43 8c0 .826-.454 1.549-1.057 1.681zM2.06 8c0-.995-.503-1.86-1.235-2.191.141-.463.326-.91.552-1.333.751.284 1.719.027 2.423-.676.703-.704.96-1.672.676-2.423.424-.226.87-.41 1.333-.552C6.139 1.557 7.005 2.06 8 2.06c.995 0 1.86-.503 2.191-1.235.463.141.91.326 1.333.552-.284.75-.027 1.719.676 2.423.704.703 1.672.96 2.423.676.226.423.41.87.552 1.333-.732.33-1.235 1.196-1.235 2.191 0 .995.503 1.86 1.235 2.191-.141.463-.326.91-.552 1.333-.75-.284-1.72-.027-2.423.676-.703.704-.96 1.672-.676 2.423-.424.226-.87.41-1.333.552-.33-.732-1.196-1.235-2.191-1.235-.995 0-1.86.503-2.191 1.235-.463-.141-.91-.326-1.333-.552.284-.75.027-1.719-.676-2.423-.704-.703-1.673-.96-2.423-.676-.226-.424-.41-.87-.552-1.333C1.557 9.861 2.06 8.995 2.06 8z" transform="translate(4 4)"/>
                    <path d="M8 11.494c1.926 0 3.494-1.568 3.494-3.494 0-1.926-1.568-3.494-3.494-3.494-1.926 0-3.494 1.568-3.494 3.494 0 1.926 1.568 3.494 3.494 3.494zm0-6.358c1.579 0 2.864 1.285 2.864 2.864S9.579 10.864 8 10.864 5.136 9.579 5.136 8 6.421 5.136 8 5.136z" transform="translate(4 4)"/>
                </g>
            </g>
        </g>
    </g>
</svg>
