<svg xmlns="http://www.w3.org/2000/svg" width="24" height="24" viewBox="0 0 24 24">
    <g fill="none" fill-rule="evenodd">
        <g>
            <g>
                <g fill="#000" fill-rule="nonzero">
                    <path d="M2.603 6.63C3.135 3.962 5.14 1.765 7.77 1.037c2.641-.73 5.52.138 7.338 2.182 1.803 2.029 2.281 4.957 1.286 7.476-.96 2.43-3.31 4.214-5.91 4.482-1.405.145-2.848-.111-4.103-.762-1.24-.643-2.274-1.638-2.967-2.855-.164-.291-.314-.59-.436-.9-.077-.191-.256-.325-.47-.268-.185.05-.345.276-.269.471.574 1.45 1.528 2.699 2.79 3.617 1.26.919 2.791 1.432 4.345 1.497 2.944.126 5.792-1.462 7.254-4.015 1.485-2.6 1.374-5.926-.303-8.41C14.645 1.068 11.652-.31 8.67.08 5.696.47 3.146 2.542 2.15 5.37c-.122.345-.214.697-.287 1.057-.042.203.058.413.268.47.188.05.429-.064.47-.267z" transform="translate(3 4)"/>
                    <path d="M5.627 4.528c-1.076.51-2.151 1.015-3.223 1.524l-.463.218.524.138C1.956 5.332 1.451 4.256.942 3.185l-.219-.463C.635 2.534.367 2.488.2 2.584c-.191.11-.226.337-.138.524.51 1.076 1.015 2.151 1.524 3.223l.218.463c.092.2.352.218.524.138C3.403 6.423 4.478 5.918 5.55 5.41l.463-.219c.188-.088.234-.356.138-.524-.11-.191-.337-.226-.524-.138zM9.359 4.287v3.548c0 .18.011.326.145.467.138.146.287.287.429.43l1.596 1.595 1.149 1.149c.348.348.891-.192.54-.54l-2.814-2.814-.394-.394c.038.092.076.18.11.272V4.758v-.47c.004-.49-.761-.495-.761 0z" transform="translate(3 4)"/>
                </g>
            </g>
        </g>
    </g>
</svg>
