<svg xmlns="http://www.w3.org/2000/svg" width="36" height="36" viewBox="0 0 36 36">
  <g fill="none" fill-rule="evenodd">
    <g>
      <path d="M0 0L36 0 36 36 0 36z"/>
      <path fill="#000" fill-rule="nonzero" d="M5.85 18c0-2.565 2.085-4.65 4.65-4.65h6V10.5h-6C6.36 10.5 3 13.86 3 18c0 4.14 3.36 7.5 7.5 7.5h6v-2.85h-6c-2.565 0-4.65-2.085-4.65-4.65zM12 19.5h12v-3H12v3zm13.5-9h-6v2.85h6c2.565 0 4.65 2.085 4.65 4.65 0 2.565-2.085 4.65-4.65 4.65h-6v2.85h6c4.14 0 7.5-3.36 7.5-7.5 0-4.14-3.36-7.5-7.5-7.5z"/>
    </g>
  </g>
</svg>
