<svg xmlns="http://www.w3.org/2000/svg" width="24" height="24" viewBox="0 0 24 24">
    <g fill="none" fill-rule="evenodd">
        <g>
            <g>
                <path fill-rule="nonzero" stroke="#000" stroke-width=".5" d="M23.75.25v13.198c0 .36-.147.685-.384.92-.239.236-.568.382-.931.382h0-20.87c-.363 0-.692-.146-.93-.382-.238-.235-.385-.56-.385-.92h0V.25h23.5z" transform="translate(0 4)"/>
                <path fill="#000" d="M.5 2L23.5 2 23.5 4.5.5 4.5zM3.993 11.46h.232c.074.394.178.746.327 1.044l-.56.124V11.46zm.92-1.437v.286h-.92v-.286h.92zm-.92 1.003v-.303h.92v.303h-.92zm-1.76-.568c.173-.19.306-.385.418-.563.174.165.36.39.484.563h-.903zm2.977 1.106c-.103.112-.265.253-.41.364-.058-.145-.099-.302-.136-.468h.716V9.588H3.533v3.132l-.137.024-.012-.223c-.19.033-.385.062-.576.095v-1.027h.547v-.419h-.547v-.302h.456v-.393l.252-.299c-.153-.223-.48-.53-.733-.737h-.401c-.145.32-.398.708-.767 1.003.1.066.236.227.303.327l.066-.058v.157h.398v.302h-.58v.419h.58v1.093c-.24.038-.46.067-.638.091l.095.44c.402-.067.928-.158 1.433-.253l.083.298c.364-.083.824-.19 1.255-.298l-.054-.44c.178.344.414.614.75.792.066-.129.207-.315.314-.41-.277-.129-.488-.336-.646-.6.178-.113.394-.262.568-.403l-.332-.335zm-3.371.265c.066.228.128.522.14.72l.34-.095c-.02-.19-.087-.484-.157-.708l-.323.083zm1.3.663c.07-.178.154-.448.237-.692l-.373-.091c-.025.203-.095.505-.153.696l.29.087zm6.42-2.82H7.546v.467H9.56v-.468zm-2.808-.237c-.199.29-.592.663-.936.882.087.096.211.294.273.402.394-.273.841-.7 1.14-1.09l-.477-.194zm.158.895c-.266.468-.717.948-1.14 1.238.1.104.266.327.336.427.112-.091.224-.195.34-.307v1.62h.493v-2.162c.165-.207.318-.423.443-.634l-.472-.182zm2.754.48h-2.29v.468h1.221v1.442c0 .062-.029.078-.103.078-.075.004-.348.004-.584-.008.066.145.128.356.149.501.368 0 .634-.008.807-.083.183-.074.232-.211.232-.476v-1.454h.568v-.468zm1.139 1.566v-2.034h2.195v2.034h-2.195zm-.518-2.535v3.38h.518v-.336h2.195v.327h.543V9.841h-3.256zm6.35 2.53h1.101v-.426h-1.101v-.348c.087.07.173.15.219.203.15-.116.273-.26.373-.427.182.158.36.323.468.444l.286-.34c-.129-.133-.36-.327-.572-.497.05-.145.087-.307.112-.476l-.44-.05c-.053.402-.194.733-.446.957V10.4h-.477v.964c-.095-.112-.244-.253-.385-.38.046-.15.079-.32.1-.498l-.448-.033c-.05.48-.207.857-.547 1.085.013-.22.017-.422.017-.6v-.676h3.036v-.451h-1.495v-.373h-.514v.373H14.41v1.122c0 .605-.024 1.47-.348 2.063.116.05.332.19.419.273.257-.472.36-1.143.397-1.73.1.065.282.21.357.289.149-.12.273-.27.372-.443.125.128.249.26.315.36l.236-.281v.48h-1.04v.427h1.04v.41h-1.3v.422h3.102v-.422h-1.325v-.41z" transform="translate(0 4)"/>
            </g>
        </g>
    </g>
</svg>
