<svg xmlns="http://www.w3.org/2000/svg" width="24" height="24" viewBox="0 0 24 24">
    <g fill="none" fill-rule="evenodd">
        <g>
            <path fill="#FFF" d="M0 0H24V24H0z"/>
            <g>
                <path d="M0 0L24 0 24 24 0 24z"/>
                <path fill="#000" fill-rule="nonzero" d="M12.652 22h-1.296c-.407 0-.785-.21-1-.554-.095-.148-.669-1.11-.961-1.68l-1.036-.427c-.633.2-1.771.485-1.87.509-.397.091-.813-.028-1.102-.316l-.918-.919c-.288-.288-.408-.705-.316-1.102.04-.172.312-1.258.508-1.868l-.426-1.032c-.6-.305-1.6-.91-1.68-.96-.346-.216-.555-.594-.555-1V11.35c0-.407.21-.785.554-1 .148-.094 1.11-.668 1.68-.96l.427-1.033c-.2-.632-.484-1.77-.508-1.868-.092-.397.028-.814.316-1.102l.918-.919c.289-.288.705-.407 1.103-.316.172.04 1.258.312 1.869.509l1.032-.427c.304-.6.91-1.6.96-1.68.216-.345.594-.554 1-.554h1.297c.407 0 .785.21 1 .554.095.148.669 1.11.961 1.68l1.032.427c.633-.2 1.771-.485 1.87-.509.397-.091.813.028 1.102.316l.918.919c.288.288.408.705.316 1.102-.04.172-.312 1.258-.508 1.868l.426 1.032c.6.305 1.6.91 1.68.96.346.216.555.594.555 1v1.297c0 .407-.21.785-.554 1-.148.094-1.11.668-1.68.96l-.42 1.037c.201.632.485 1.77.51 1.868.09.397-.029.814-.317 1.102l-.918.919c-.289.288-.705.407-1.103.316-.172-.04-1.258-.312-1.869-.509l-1.032.427c-.304.6-.91 1.6-.96 1.68-.217.346-.597.555-1.005.554zm-3.904-4.467l1.63.678.081.18c.166.36.763 1.37.9 1.577.012.02.034.032.059.032h1.164c.025 0 .047-.012.06-.032.106-.17.719-1.194.899-1.577l.08-.18 1.637-.678.18.067c.371.137 1.506.428 1.745.485.023.007.047 0 .063-.018l.825-.825c.017-.016.024-.04.018-.063-.045-.192-.336-1.352-.485-1.745l-.067-.18.674-1.632.18-.081c.36-.166 1.37-.763 1.577-.9.02-.012.032-.034.032-.059v-1.164c0-.025-.012-.047-.032-.06-.17-.106-1.194-.719-1.577-.899l-.18-.08-.678-1.637.067-.18c.137-.371.428-1.506.485-1.745.005-.023-.001-.046-.018-.063l-.825-.825c-.016-.017-.04-.024-.063-.018-.192.045-1.348.336-1.745.485l-.18.067-1.64-.674-.08-.18c-.166-.36-.763-1.37-.9-1.577-.012-.02-.035-.032-.059-.032h-1.157c-.025 0-.047.012-.06.032-.106.17-.719 1.194-.899 1.577l-.08.18-1.637.678-.18-.067c-.371-.137-1.506-.428-1.745-.485-.023-.007-.047 0-.063.018l-.825.825c-.017.016-.024.04-.018.063.045.192.336 1.352.485 1.745l.067.18-.674 1.64-.18.08c-.36.166-1.37.763-1.577.9-.02.012-.032.035-.032.059v1.165c0 .024.012.046.032.059.17.106 1.194.72 1.577.899l.18.08.678 1.637-.067.18c-.137.372-.428 1.506-.485 1.745-.005.023.001.046.018.063l.825.825c.016.017.04.024.063.018.192-.045 1.348-.336 1.745-.485l.182-.078zM12 16C9.79 16 8 14.21 8 12s1.791-4 4-4c2.21 0 4.002 1.79 4.002 4-.004 2.208-1.793 3.996-4.001 4zM12 9.5c-1.38 0-2.5 1.12-2.5 2.5s1.12 2.5 2.5 2.5 2.5-1.12 2.5-2.5c-.002-1.38-1.12-2.498-2.5-2.5z"/>
            </g>
        </g>
    </g>
</svg>
