<svg xmlns="http://www.w3.org/2000/svg" xmlns:xlink="http://www.w3.org/1999/xlink" width="24" height="24" viewBox="0 0 24 24">
    <defs>
        <path id="0ksroev8oa" d="M4.827 2.016C5.567.806 6.9 0 8.421 0s2.854.807 3.594 2.016c.441-.213.936-.332 1.459-.332 1.86 0 3.368 1.508 3.368 3.369 0 1.669-1.214 3.054-2.807 3.321v6.503c0 .62-.503 1.123-1.123 1.123H3.93c-.62 0-1.123-.503-1.123-1.123V8.374C1.214 8.107 0 6.722 0 5.053c0-1.86 1.508-3.369 3.368-3.369.523 0 1.018.12 1.46.332z"/>
    </defs>
    <g fill="none" fill-rule="evenodd">
        <g>
            <path fill="#FFF" d="M0 0H24V24H0z"/>
            <g>
                <g transform="translate(4 4)">
                    <mask id="b9zn1pcszb" fill="#fff">
                        <use xlink:href="#0ksroev8oa"/>
                    </mask>
                    <path fill="#000" fill-opacity=".6" fill-rule="nonzero" d="M4.827 2.016l-.243.505.457.22.265-.432-.479-.293zm7.188 0l-.479.293.265.433.457-.22-.243-.506zm2.02 6.358l-.093-.553-.468.078v.475h.561zm-11.228 0h.561V7.9L2.9 7.821l-.093.553zM5.306 2.31C5.948 1.259 7.103.56 8.421.56V-.56c-1.725 0-3.235.915-4.073 2.284l.958.586zM8.421.56c1.318 0 2.473.698 3.115 1.748l.958-.586C11.656.353 10.146-.561 8.42-.561V.56zm3.837 1.96c.367-.176.78-.275 1.216-.275V1.123c-.609 0-1.187.139-1.702.387l.486 1.011zm1.216-.275c1.55 0 2.807 1.256 2.807 2.807h1.123c0-2.17-1.76-3.93-3.93-3.93v1.123zm2.807 2.807c0 1.39-1.012 2.545-2.339 2.768l.186 1.107c1.859-.312 3.276-1.928 3.276-3.875H16.28zm-2.807 3.321v6.503h1.122V8.374h-1.122zm0 6.503c0 .31-.252.562-.562.562v1.122c.93 0 1.684-.754 1.684-1.684h-1.122zm-.562.562H3.93v1.122h8.982V15.44zm-8.982 0c-.31 0-.562-.252-.562-.562H2.246c0 .93.754 1.684 1.684 1.684V15.44zm-.562-.562V8.374H2.246v6.503h1.122zM2.9 7.821C1.573 7.598.56 6.443.56 5.053H-.56C-.561 7 .855 8.616 2.714 8.928L2.9 7.821zM.56 5.053c0-1.55 1.257-2.807 2.807-2.807V1.123c-2.17 0-3.93 1.76-3.93 3.93H.562zm2.807-2.807c.437 0 .849.099 1.216.275L5.07 1.51c-.516-.248-1.094-.387-1.703-.387v1.123z" mask="url(#b9zn1pcszb)"/>
                </g>
                <path fill="#000" fill-opacity=".6" fill-rule="nonzero" d="M3.368 12.351L13.474 12.351 13.474 12.912 3.368 12.912zM8.14 12.35V8.702c0-.155.126-.28.281-.28.155 0 .28.125.28.28v3.648h-.56z" transform="translate(4 4)"/>
                <path fill="#000" fill-opacity=".6" fill-rule="nonzero" d="M10.667 12.354V8.702c0-.155.125-.28.28-.28.155 0 .281.125.281.28v3.652h-.561zM5.614 12.35V8.702c0-.155.126-.28.28-.28.156 0 .281.125.281.28v3.648h-.561z" transform="translate(4 4)"/>
            </g>
        </g>
    </g>
</svg>
