<svg width="24" height="24" viewBox="0 0 24 24" xmlns="http://www.w3.org/2000/svg">
    <defs>
        <filter color-interpolation-filters="auto" id="a">
            <feColorMatrix in="SourceGraphic" values="0 0 0 0 0.000000 0 0 0 0 0.000000 0 0 0 0 0.000000 0 0 0 0.600000 0"/>
        </filter>
    </defs>
    <g transform="translate(-8 -8)" fill="none" fill-rule="evenodd">
        <g filter="url(#a)">
            <path d="M8 8h24v24H8z"/>
            <path d="M23.5 22h-.79l-.28-.27a6.5 6.5 0 0 0 1.48-5.34c-.47-2.78-2.79-5-5.59-5.34a6.505 6.505 0 0 0-7.27 7.27c.34 2.8 2.56 5.12 5.34 5.59a6.5 6.5 0 0 0 5.34-1.48l.27.28v.79l4.25 4.25c.41.41 1.08.41 1.49 0 .41-.41.41-1.08 0-1.49L23.5 22zm-6-9c2.49 0 4.5 2.01 4.5 4.5S19.99 22 17.5 22 13 19.99 13 17.5s2.01-4.5 4.5-4.5zm.75 1.5h-1.5v2.25H14.5v1.5h2.25v2.25h1.5v-2.25h2.25v-1.5h-2.25V14.5z" fill="#000" fill-rule="nonzero"/>
        </g>
        <circle cx="20" cy="20" r="20"/>
    </g>
</svg>
