<svg xmlns="http://www.w3.org/2000/svg" width="24" height="24" viewBox="0 0 24 24">
    <g fill="none" fill-rule="evenodd">
        <g>
            <path fill="#FFF" d="M0 0H24V24H0z"/>
            <g>
                <path d="M0 0L24 0 24 24 0 24z"/>
                <path fill="#000" d="M12 2c5.523 0 10 4.477 10 10s-4.477 10-10 10S2 17.523 2 12 6.477 2 12 2zm0 2c-4.418 0-8 3.582-8 8s3.582 8 8 8 8-3.582 8-8-3.582-8-8-8zm3 4.5c.276 0 .5.224.5.5v6c0 .276-.224.5-.5.5H9c-.276 0-.5-.224-.5-.5V9c0-.276.224-.5.5-.5zM13.75 10h-3.5c-.138 0-.25.112-.25.25v3.5l.007.057c.026.11.125.193.243.193h3.5l.057-.007c.11-.026.193-.125.193-.243v-3.5l-.007-.057c-.026-.11-.125-.193-.243-.193z"/>
            </g>
        </g>
    </g>
</svg>
