<svg width="24" height="24" viewBox="0 0 24 24" xmlns="http://www.w3.org/2000/svg" style="background:#fff">
    <g fill="none" fill-rule="evenodd">
        <path fill="#FFF" d="M0 0h24v24H0z"/>
        <path d="M0 0h24v24H0z"/>
        <path d="M9.488 18.72c-.752 0-1.36.625-1.36 1.39 0 .764.608 1.39 1.36 1.39.752 0 1.367-.626 1.367-1.39 0-.765-.615-1.39-1.367-1.39zm7.509 0c-.752 0-1.36.625-1.36 1.39 0 .764.608 1.39 1.36 1.39.751 0 1.367-.626 1.367-1.39 0-.765-.616-1.39-1.367-1.39zm-7.772-4.666h7.58c.764 0 1.435-.43 1.781-1.081l3.297-6.45c.255-.504.082-1.134-.407-1.407-.498-.284-1.12-.085-1.384.43l-3.286 6.408H9.662L5.327 2.5h-2.31C2.458 2.5 2 2.973 2 3.55c0 .578.458 1.05 1.018 1.05h1.017l3.663 7.973-1.373 2.563c-.743 1.408.234 3.12 1.78 3.12H19.3c.56 0 1.017-.473 1.017-1.05 0-.578-.458-1.05-1.017-1.05H8.105l1.12-2.102z" fill-opacity=".6" fill="#000" fill-rule="nonzero"/>
    </g>
</svg>
