<svg width="14" height="14" viewBox="0 0 14 14" xmlns="http://www.w3.org/2000/svg">
    <g fill="none" fill-rule="evenodd">
        <path d="M0 0h14v14H0z"/>
        <path d="M12.347 10.792H9.14V8.625H7.706a3.737 3.737 0 0 1-3.38 2.167C2.262 10.792.583 9.09.583 7c0-2.09 1.68-3.792 3.743-3.792 1.455 0 2.765.856 3.38 2.167h5.71v3.25h-1.069v2.167zm-2.139-1.084h1.07V7.542h1.07V6.458h-5.38l-.123-.363a2.679 2.679 0 0 0-2.519-1.803C2.851 4.292 1.653 5.505 1.653 7S2.85 9.708 4.326 9.708a2.679 2.679 0 0 0 2.519-1.803l.123-.363h3.24v2.166zM4.326 8.625c-.882 0-1.604-.731-1.604-1.625s.722-1.625 1.604-1.625c.883 0 1.605.731 1.605 1.625s-.722 1.625-1.605 1.625zm0-2.167A.54.54 0 0 0 3.792 7c0 .298.24.542.534.542A.54.54 0 0 0 4.861 7a.54.54 0 0 0-.535-.542z" fill="#F74F18" fill-rule="nonzero"/>
    </g>
</svg>
