<svg width="24" height="24" xmlns="http://www.w3.org/2000/svg">
    <defs>
        <filter color-interpolation-filters="auto" id="a">
            <feColorMatrix in="SourceGraphic" values="0 0 0 0 0.000000 0 0 0 0 0.000000 0 0 0 0 0.000000 0 0 0 0.600000 0"/>
        </filter>
    </defs>
    <g fill="none" fill-rule="evenodd">
        <path d="M0 0h24v24H0z"/>
        <g filter="url(#a)">
            <g fill="#000" fill-rule="nonzero">
                <path d="M9.931 10.229c-.651 0-1.165.55-1.165 1.221s.525 1.221 1.165 1.221c.652 0 1.166-.55 1.166-1.221.012-.671-.514-1.221-1.166-1.221zm4.172 0c-.652 0-1.166.55-1.166 1.221s.526 1.221 1.166 1.221c.651 0 1.166-.55 1.166-1.221s-.515-1.221-1.166-1.221z"/>
                <path d="M19.657 1H4.343C3.05 1 2 2.012 2 3.266v14.872c0 1.254 1.051 2.266 2.343 2.266h12.96l-.606-2.035 1.463 1.309 1.383 1.232L22 23V3.266C22 2.012 20.949 1 19.657 1zm-4.411 14.366s-.412-.473-.755-.891c1.498-.407 2.069-1.309 2.069-1.309a6.64 6.64 0 0 1-1.314.649 7.745 7.745 0 0 1-1.657.473 8.313 8.313 0 0 1-2.96-.011 9.878 9.878 0 0 1-1.68-.473 6.822 6.822 0 0 1-.835-.374c-.034-.022-.068-.033-.103-.055-.022-.011-.034-.022-.045-.033-.206-.11-.32-.187-.32-.187s.548.88 2 1.298c-.343.418-.766.913-.766.913-2.526-.077-3.486-1.672-3.486-1.672 0-3.542 1.646-6.413 1.646-6.413 1.646-1.188 3.211-1.155 3.211-1.155l.115.132C8.309 6.83 7.36 7.699 7.36 7.699s.251-.132.674-.319c1.223-.517 2.195-.66 2.595-.693.068-.011.125-.022.194-.022.697-.088 1.486-.11 2.308-.022a9.577 9.577 0 0 1 3.44 1.056s-.902-.825-2.845-1.397l.16-.176s1.565-.033 3.211 1.155c0 0 1.646 2.871 1.646 6.413 0 0-.972 1.595-3.497 1.672z"/>
            </g>
        </g>
    </g>
</svg>
