<svg width="24" height="24" xmlns="http://www.w3.org/2000/svg">
    <defs>
        <filter color-interpolation-filters="auto" id="a">
            <feColorMatrix in="SourceGraphic" values="0 0 0 0 0.000000 0 0 0 0 0.000000 0 0 0 0 0.000000 0 0 0 0.600000 0"/>
        </filter>
    </defs>
    <g fill="none" fill-rule="evenodd">
        <path d="M0 0h24v24H0z"/>
        <g filter="url(#a)">
            <path d="M21.94 13.083 20.877 9.89l.001.004-.001-.005-2.114-6.335A.832.832 0 0 0 17.963 3a.82.82 0 0 0-.789.56l-2.006 6.013H8.836l-2.01-6.014A.82.82 0 0 0 6.036 3h-.004c-.36 0-.68.223-.796.56L3.128 9.889v.001l-.001.005.001-.005-1.069 3.193c-.16.482.014 1.005.434 1.303l9.23 6.527.004.002.011.008-.01-.007h.001l.002.002c.014.01.03.018.045.026l.006.004.004.002.003.001.002.001.005.002.025.01.023.01.005.002.005.002h.002l.006.001.002.001.035.008c.004.001.008.003.013.003h.002l.004.002.007.001h.007a.48.48 0 0 0 .134 0h.007l.008-.001.004-.001h.002l.014-.004.033-.008h.002l.007-.002h.002l.005-.002.004-.002.025-.01.023-.01c.002 0 .004 0 .006-.002h.002l.003-.002.004-.002.006-.004a.48.48 0 0 0 .045-.026l.003-.002h.001l.004-.003 9.23-6.527c.421-.298.596-.821.435-1.303zM17.97 4.148l1.81 5.425h-3.62l1.81-5.425zm1.493 6.342-.739.921-5.448 6.794 2.577-7.715h3.61zm-8.737 7.715L4.54 10.49h3.61l2.574 7.715zM6.03 4.148l1.814 5.425h-3.62L6.03 4.148zm-2.983 9.496a.244.244 0 0 1-.093-.277l.795-2.374 5.822 7.265-6.524-4.614zm8.718 7.315-.013-.011-.003-.003a.925.925 0 0 1-.073-.064l.004.003.005.004c.033.031.068.06.104.087h.001l.005.005-.03-.021zM12 19.057l-1.515-4.54-1.343-4.027h5.72L12 19.057zm.36 1.866-.026.022-.003.003-.013.01-.03.022.005-.004v-.001c.037-.027.072-.055.104-.086l.004-.003.006-.005a1.335 1.335 0 0 1-.048.042zm8.593-7.279-6.523 4.612 5.823-7.262.792 2.372a.245.245 0 0 1-.092.278z" fill="#000" fill-rule="nonzero"/>
        </g>
    </g>
</svg>
