<svg xmlns="http://www.w3.org/2000/svg" width="24" height="24" viewBox="0 0 24 24">
    <g fill="none" fill-rule="evenodd">
        <g>
            <path fill="#FFF" d="M0 0H24V24H0z"/>
            <g>
                <path d="M0 0L24 0 24 24 0 24z"/>
                <path fill="#000" fill-rule="nonzero" d="M11.142 8.003v3.999c0 .27.108.52.286.71l2.75 2.79c.383.389 1.004.389 1.389 0 .384-.39.384-1.02 0-1.41l-2.464-2.5v-3.59c0-.55-.443-1-.985-1-.533 0-.976.45-.976 1zm1.242-5c-5.016-.14-9.126 3.94-9.126 8.999H1.494c-.443 0-.66.54-.345.85L3.9 15.64c.197.2.502.2.7 0l2.759-2.79c.295-.31.079-.85-.365-.85H5.23c0-3.888 3.154-7.058 6.997-6.998 3.656.05 6.74 3.18 6.8 6.899C19.085 15.81 15.97 19 12.127 19c-1.566 0-3.005-.53-4.168-1.43-.394-.3-.946-.27-1.291.09-.424.43-.384 1.14.089 1.5 1.488 1.15 3.35 1.84 5.37 1.84 4.987 0 9.008-4.17 8.87-9.248-.129-4.7-3.992-8.619-8.613-8.749z"/>
            </g>
        </g>
    </g>
</svg>
