<svg width="32" height="32" viewBox="0 0 32 32" xmlns="http://www.w3.org/2000/svg">
    <g transform="translate(-10.667 -10.667)" fill="none" fill-rule="evenodd">
        <path d="M10.667 10.667h32v32h-32z"/>
        <path d="m27.847 27.559-2.503 3.361a.464.464 0 0 0 .034.578l6.571 7.028a.498.498 0 0 0 .694 0l6.571-7.028a.464.464 0 0 0 .035-.578l-2.504-3.361a.481.481 0 0 0-.381-.186h-8.135a.495.495 0 0 0-.382.186zm-5.403-12.525v2.95c-3.279 1.172-5.63 4.292-5.63 7.977 0 2.499 1.099 4.715 2.816 6.268v-3.445h2.814v8.47H14v-2.823h3.842A11.226 11.226 0 0 1 14 25.961a11.28 11.28 0 0 1 8.444-10.927zM36.52 17.49h-3.843a11.277 11.277 0 0 1 3.744 7.059h-2.843c-.324-1.92-1.309-3.6-2.688-4.856v3.444h-2.815v-8.47h8.445v2.823z" fill-opacity=".74" fill="#000" fill-rule="nonzero"/>
        <circle fill-opacity=".16" fill="#000" cx="26.667" cy="26.667" r="26.667"/>
    </g>
</svg>
