<svg width="24" height="24" xmlns="http://www.w3.org/2000/svg" xmlns:xlink="http://www.w3.org/1999/xlink">
    <defs>
        <filter color-interpolation-filters="auto" id="a">
            <feColorMatrix in="SourceGraphic" values="0 0 0 0 0.000000 0 0 0 0 0.000000 0 0 0 0 0.000000 0 0 0 0.600000 0"/>
        </filter>
        <path id="b" d="M0 0h20v19.879H0z"/>
    </defs>
    <g fill="none" fill-rule="evenodd">
        <path d="M0 0h24v24H0z"/>
        <g filter="url(#a)" transform="translate(2 2)">
            <mask id="c" fill="#fff">
                <use xlink:href="#b"/>
            </mask>
            <path d="M20 10c0-5.523-4.477-10-10-10C4.475 0-.002 4.476-.002 10c0 4.991 3.657 9.128 8.438 9.879V12.89h-2.54V10h2.54V7.796c0-2.506 1.493-3.89 3.777-3.89 1.094 0 2.239.195 2.239.195v2.461h-1.261c-1.243 0-1.63.77-1.63 1.562V10h2.774l-.444 2.89h-2.33v6.989c4.78-.75 8.438-4.888 8.438-9.88" fill="#000" mask="url(#c)"/>
        </g>
        <path d="m15.892 14.89.444-2.89h-2.774v-1.876c0-.791.387-1.562 1.63-1.562h1.26V6.101s-1.144-.195-2.238-.195c-2.284 0-3.777 1.384-3.777 3.89V12h-2.54v2.89h2.54v6.989a10.076 10.076 0 0 0 3.125 0V14.89h2.33" fill="#FFF"/>
    </g>
</svg>
