<?xml version="1.0" encoding="UTF-8"?>
<svg width="24px" height="24px" viewBox="0 0 24 24" version="1.1" xmlns="http://www.w3.org/2000/svg" xmlns:xlink="http://www.w3.org/1999/xlink">
    <title>IconFolder</title>
    <g id="Page-1" stroke="none" stroke-width="1" fill="none" fill-rule="evenodd">
        <g id="IconFolder" transform="translate(0.000000, 0.000000)">
            <polygon id="Path" points="-1.52259158e-15 -1.52259158e-15 24 -1.52259158e-15 24 24 1.52259158e-15 24"></polygon>
            <path d="M9.16971429,6 L11.1702857,7.99885714 L19.9988571,7.99885714 L19.9988571,18 L3.99942857,18 L3.99942857,6 L9.16971429,6 M9.99942857,3.99942857 L3.99942857,3.99942857 C2.89885714,3.99942857 2.01085714,4.89942857 2.01085714,6 L1.99885714,18 C2.00262464,19.1030427 2.89638305,19.9960352 3.99942857,19.9988571 L19.9988571,19.9988571 C21.1019027,19.9960352 21.9956611,19.1030427 21.9994286,18 L21.9994286,7.99885714 C21.9956611,6.89581444 21.1019027,6.0028219 19.9988571,6 L12,6 L9.99942857,3.99942857 Z" id="Shape" fill="#F74F18" fill-rule="nonzero"></path>
        </g>
    </g>
</svg>