<svg width="24" height="24" xmlns="http://www.w3.org/2000/svg">
    <g fill="none" fill-rule="evenodd">
        <path fill="#F9F9F9" d="M0 0h24v24H0z"/>
        <path d="M0 0h24v24H0z"/>
        <path d="M19 10.05v-3h3v-2h-3v-3h-2v3h-3v2h3v3h2zM12 2c.338 0 .672.017 1 .05v2.012a8 8 0 1 0 6.944 6.987h2.012c.03.313.045.63.045.951 0 5.523-4.477 10-10 10C6.477 22 2 17.523 2 12S6.477 2 12 2zm1 6.5v1.875h-2.312a.313.313 0 0 0-.305.24l-.008.073v2.624l.008.072c.033.138.157.241.305.241h2.624l.072-.008a.313.313 0 0 0 .241-.305l-.001-2.263H15.5v3.826a.625.625 0 0 1-.533.618l-.092.007h-5.75a.625.625 0 0 1-.625-.625v-5.75c0-.345.28-.625.625-.625H13z" fill-opacity=".6" fill="#000"/>
        <circle cx="12" cy="12" r="20"/>
    </g>
</svg>
