<?xml version="1.0" encoding="UTF-8"?>
<svg width="24px" height="24px" viewBox="0 0 24 24" version="1.1" xmlns="http://www.w3.org/2000/svg" xmlns:xlink="http://www.w3.org/1999/xlink">
    <title>galleon-dark</title>
    <g id="Page-1" stroke="none" stroke-width="1" fill="none" fill-rule="evenodd">
        <g id="galleon-dark" transform="translate(-0.000000, 0.000000)" fill="#000000" fill-rule="nonzero">
            <g id="Group" transform="translate(12.000000, 12.000000) scale(-1, 1) rotate(-180.000000) translate(-12.000000, -12.000000) translate(2.000000, 3.500000)">
                <path d="M10.5294691,13.0238241 L10.5294691,8.95300475 L12.4612689,8.95300475 C13.5261146,8.95300475 14.3930687,8.9623308 14.3930687,8.97631987 C14.3930687,9.02295009 14.1009429,9.91358752 14.0161322,10.1187606 C13.9690151,10.2353362 13.8653575,10.5057915 13.7805468,10.7249537 C13.1727366,12.3290337 12.7628182,13.1916929 11.6838373,15.1315106 C11.6131616,15.2620753 11.3493061,15.7097255 11.0948739,16.1340606 C10.8451535,16.5583958 10.6142798,16.9454267 10.5860095,16.99672 C10.5483159,17.0666653 10.5341807,16.0268111 10.5294691,13.0238241 Z" id="Path"></path>
                <path d="M10.1431091,16.8987964 C10.1195505,16.8801444 10.1054155,14.9683048 10.1054155,12.6507822 L10.1054155,8.44007219 L8.0463995,8.43074615 L5.99209527,8.41675708 L6.40201377,8.00641102 C6.63288742,7.78258591 6.80722057,7.58673893 6.79308545,7.57274985 C6.76481521,7.54477172 6.1475816,7.69865149 5.65285237,7.85719428 C5.15812315,8.0204001 4.23934029,8.46338731 3.76345789,8.77580987 L3.38180963,9.02761313 L3.05670185,8.72451661 C2.32638727,8.05304126 1.67617172,7.59606497 0.889316659,7.21369706 C0.606614243,7.07846939 0.300353292,6.93391566 0.21083086,6.9012745 C-0.0153310731,6.81734008 -0.0341779008,6.79402496 0.0364977032,6.7007645 C0.0930381864,6.6214931 0.116596721,6.6214931 0.493533276,6.71009054 C1.19557761,6.87329636 1.95416243,6.94790473 2.95775601,6.94790473 C4.79532171,6.94790473 5.45967239,6.83599217 7.93803024,6.10856054 L8.71546188,5.88473542 L9.65780327,5.85675728 C11.1514144,5.81012705 11.9806748,5.68422541 13.2339888,5.31118355 C14.5909605,4.90550052 15.6228243,4.47183936 16.9656607,3.73041865 L17.6629934,3.34338771 L17.8467499,3.54856074 C18.1530109,3.89362446 18.6618753,4.58375191 18.9304425,5.01741308 C19.2084333,5.46506332 19.4487303,5.9220396 19.4251717,5.94535472 C19.4157484,5.95468077 19.1047756,5.97333286 18.7278391,5.99198496 C17.5923177,6.04327821 16.4049676,6.15052775 15.674653,6.27176635 C15.0715545,6.37435286 12.8476289,6.8826224 12.7958001,6.92925264 C12.781665,6.94324171 12.7958001,6.96655682 12.8193586,6.98987194 C12.8429172,7.01318706 13.2763942,6.92925264 13.8512225,6.78469891 C15.6086891,6.34637473 16.8054627,6.18316891 18.5911996,6.12254961 L19.5099825,6.09457146 L19.61364,6.33238565 C19.7408561,6.6214931 20,7.31628357 20,7.35825078 C20,7.37690287 19.7926849,7.5820759 19.533541,7.81989009 L19.0717937,8.24888824 L18.8173615,8.13231265 C18.3650377,7.92247661 17.6394348,7.69398846 17.0363364,7.56808684 C16.49449,7.45151125 16.3484271,7.4421852 15.4060857,7.4421852 C14.6239424,7.4421852 14.2658526,7.4608373 13.9501683,7.5214566 C13.7192946,7.56342381 13.521403,7.61005405 13.5072678,7.62404311 C13.4931327,7.63803218 13.6580425,7.82921613 13.874781,8.04371521 L14.2752761,8.44007219 L12.235107,8.44007219 L10.1996495,8.44007219 L10.1902262,12.6880864 C10.1808027,15.0242611 10.1619559,16.9174485 10.1431091,16.8987964 Z" id="Path"></path>
                <path d="M9.55885745,14.7491427 C9.436353,14.5486327 8.97460576,13.8212011 8.53170531,13.1264106 C8.09351656,12.4362831 7.70244489,11.811438 7.66003953,11.7414927 C7.5045532,11.4803634 6.30777964,9.61515409 6.09104112,9.29340544 L5.86016748,8.95300475 L7.8437961,8.95300475 L9.822713,8.95300475 L9.822713,12.0306001 C9.822713,13.7232776 9.81328964,15.1081955 9.80386618,15.1081955 C9.79444273,15.1081955 9.68136182,14.9449897 9.55885745,14.7491427 Z" id="Path"></path>
                <path d="M2.04839656,6.82666612 C1.28510005,6.75672078 0.243812808,6.57019984 0.14957867,6.4816024 C0.0930381864,6.43497217 0.771523985,5.13398866 1.09192005,4.66302331 C1.24740638,4.4391982 1.39818101,4.27132935 1.43587466,4.27599238 C1.47356832,4.2806554 1.78454097,4.401894 2.11907217,4.55111075 C3.6362418,5.20393402 5.50678945,5.66557332 7.14175176,5.7821489 C7.54224685,5.81012705 7.95216536,5.85209426 8.05582291,5.86608332 C8.23957948,5.89872448 8.22544436,5.90805053 7.63176929,6.08058239 C6.623464,6.37901589 5.44553726,6.65879729 4.87070902,6.73806869 C4.35713296,6.80801403 2.51014385,6.86863333 2.04839656,6.82666612 Z" id="Path"></path>
                <path d="M7.16059859,5.68422541 C5.49265434,5.53500867 3.59854815,5.06404332 2.11907217,4.42987214 C1.80809951,4.29464447 1.53953222,4.17340586 1.52068539,4.15475377 C1.50183856,4.13610168 1.75627074,4.19205796 2.09080193,4.27599238 C3.07083697,4.51846959 3.60325985,4.57908889 4.68695245,4.58375191 C6.09575283,4.58375191 7.13704005,4.41122005 8.30083167,3.98222191 C8.83796626,3.78637493 9.67665009,3.39001795 10.0771452,3.15220376 C10.2279198,3.05894329 10.3739827,2.98433491 10.3975413,2.98433491 C10.5907213,2.98433491 13.2198537,5.16662983 13.102061,5.23191215 C13.0031152,5.28786843 11.8723055,5.54433471 11.3775763,5.62360611 C10.7980364,5.71220356 7.94745365,5.75417077 7.16059859,5.68422541 Z" id="Path"></path>
                <path d="M13.0266737,4.93347866 C12.0607738,4.05683028 11.0053515,3.21282306 10.2609017,2.73253166 C9.47404673,2.22426212 7.80610245,1.47351536 6.31249135,0.955919775 C6.10517624,0.881311405 5.91670796,0.811366056 5.89786114,0.792713962 C5.85545577,0.755409776 6.64231083,0.470965355 7.20300395,0.321748609 C7.63176929,0.209836049 7.70244489,0.219162096 8.59766921,0.475628377 C10.83573,1.11912559 13.054944,2.59264096 14.4119155,4.33194866 C14.6333658,4.61639308 14.6663477,4.68633843 14.6098073,4.71897959 C14.5202848,4.77027285 13.3612049,5.17595587 13.3187995,5.17595587 C13.2999527,5.17129285 13.1680249,5.06404332 13.0266737,4.93347866 Z" id="Path"></path>
                <path d="M14.5391316,4.30863354 C13.2434123,2.56466282 10.8215949,0.969908851 8.49401165,0.321748609 C8.18775071,0.237814189 7.94745365,0.163205816 7.95203107,0.153879769 C8.01341755,0.0979234893 9.22903791,0 9.89810036,0 L10.7179374,0 L11.109009,0.191183956 C12.7910884,1.02586513 14.0208439,1.95380677 15.4060857,3.43198516 C15.7311935,3.77704888 15.9950491,4.07548237 15.9950491,4.09879749 C15.9950491,4.13610168 15.4390677,4.401894 15.0197257,4.56043679 L14.7935638,4.64903424 L14.5391316,4.30863354 Z" id="Path"></path>
                <path d="M3.67393546,4.44386121 C3.17449453,4.401894 1.6667483,4.09879749 1.58193758,4.02885214 C1.55366734,4.00553703 1.89291024,3.60451702 2.32167557,3.16619283 L2.70803554,2.76517283 L3.00487307,2.82579212 C3.58441303,2.95169375 4.40425004,2.99366097 5.15341144,2.93770469 C6.18056355,2.86309632 6.79308545,2.73719468 8.17832729,2.30353352 L8.87094821,2.08437142 L9.36567745,2.34550073 C9.902812,2.62528213 10.2467666,2.8397812 10.2467666,2.89107445 C10.2467666,2.93770469 9.629533,3.27344237 9.0688399,3.53923469 C8.05582291,4.01020004 6.93443666,4.31795959 5.82247383,4.42987214 C5.37486166,4.47183936 4.11212421,4.4811654 3.67393546,4.44386121 Z" id="Path"></path>
                <path d="M15.9290852,3.81435307 C15.4956082,3.32939864 14.2846995,2.14965375 13.8512225,1.79526398 C13.2716825,1.3196356 12.508386,0.81602908 11.735666,0.391693958 C11.4105583,0.219162096 11.1514144,0.0652823263 11.1608378,0.060619303 C11.189108,0.0326411632 12.0843324,0.200510002 12.588485,0.331074655 C14.2564293,0.750746753 15.8961033,1.65537328 17.1352822,2.83511817 C17.3614441,3.05428027 17.5357773,3.24546422 17.5263538,3.26877934 C17.4933719,3.31540958 16.3060217,3.96356982 16.1929408,3.99621098 C16.1316886,4.01020004 16.0515895,3.95424377 15.9290852,3.81435307 Z" id="Path"></path>
                <path d="M3.34882768,2.77449887 C3.11324234,2.73719468 2.91063894,2.69056445 2.89179211,2.67191235 C2.79284626,2.56932585 4.244052,1.55744979 5.10629437,1.12378862 L5.66227579,0.844007219 L6.41143719,1.11446257 C7.25012103,1.42222211 7.96630048,1.70200351 8.3856424,1.88852444 L8.66834482,2.01442607 L8.26784973,2.14965375 C7.69302148,2.34550073 6.57163523,2.64393422 6.076906,2.73253166 C5.4690958,2.83511817 3.89538568,2.86309632 3.34882768,2.77449887 Z" id="Path"></path>
            </g>
        </g>
    </g>
</svg>