<svg width="20" height="20" xmlns="http://www.w3.org/2000/svg">
    <defs>
    </defs>
    <g transform="translate(-6.667 -6.667)" fill="none" fill-rule="evenodd">
        <g filter="url(#a)">
            <path d="M6.667 6.667h20v20h-20z"/>
            <path d="M16.667 8.333a8.336 8.336 0 0 0-8.334 8.334c0 4.6 3.734 8.333 8.334 8.333S25 21.267 25 16.667s-3.733-8.334-8.333-8.334zM17.5 22.5h-1.667v-1.667H17.5V22.5zm1.725-6.458-.75.766c-.6.609-.975 1.109-.975 2.359h-1.667v-.417c0-.917.375-1.75.975-2.358l1.034-1.05c.308-.3.491-.717.491-1.175 0-.917-.75-1.667-1.666-1.667-.917 0-1.667.75-1.667 1.667h-1.667a3.332 3.332 0 1 1 6.667 0c0 .733-.3 1.4-.775 1.875z" fill="#000" fill-rule="nonzero"/>
        </g>
        <circle cx="16.667" cy="16.667" r="16.667"/>
    </g>
</svg>
