<?xml version="1.0" encoding="UTF-8" standalone="no"?>
<!DOCTYPE svg PUBLIC "-//W3C//DTD SVG 1.1//EN" "http://www.w3.org/Graphics/SVG/1.1/DTD/svg11.dtd">
<svg width="100%" height="100%" viewBox="0 0 24 24" version="1.1" xmlns="http://www.w3.org/2000/svg" xmlns:xlink="http://www.w3.org/1999/xlink" xml:space="preserve" xmlns:serif="http://www.serif.com/" style="fill-rule:evenodd;clip-rule:evenodd;stroke-linejoin:round;stroke-miterlimit:2;">
    <g>
        <rect x="0" y="0" width="24" height="24" style="fill:white;"/>
        <path d="M9.503,3L9.503,4.553C8.569,4.182 7.572,3.991 6.567,3.99C4.479,3.987 2.474,4.817 1,6.296L4.745,10.043L5.994,10.043L5.994,11.291C6.927,12.221 8.176,12.767 9.492,12.821L9.492,15.375L6.129,15.375L6.129,18.75C6.132,19.983 7.146,20.997 8.379,21L19.626,21C19.627,21 19.629,21 19.63,21C21.479,21 23,19.479 23,17.63C23,17.628 23,17.627 23,17.625L23,3L9.503,3ZM8.255,10.211L8.255,7.793L5.69,7.793L4.52,6.623C5.173,6.371 5.867,6.241 6.567,6.24C8.075,6.24 9.481,6.825 10.549,7.883L12.135,9.469L11.91,9.694C11.336,10.267 10.572,10.594 9.75,10.594C9.227,10.594 8.713,10.462 8.255,10.211ZM20.751,17.625C20.751,18.244 20.244,18.75 19.626,18.75C19.009,18.748 18.503,18.242 18.501,17.625L18.501,15.375L11.753,15.375L11.753,12.461C12.41,12.197 13.007,11.803 13.507,11.302L13.732,11.078L16.915,14.25L18.501,14.25L18.501,12.664L11.753,5.948L11.753,5.25L20.751,5.25L20.751,17.625Z" style="fill-rule:nonzero;"/>
    </g>
</svg>
