<svg width="24" height="24" xmlns="http://www.w3.org/2000/svg">
    <defs>
        <filter color-interpolation-filters="auto" id="a">
            <feColorMatrix in="SourceGraphic" values="0 0 0 0 0.000000 0 0 0 0 0.000000 0 0 0 0 0.000000 0 0 0 0.600000 0"/>
        </filter>
    </defs>
    <g fill="none" fill-rule="evenodd">
        <path d="M0 0h24v24H0z"/>
        <g filter="url(#a)">
            <path d="M12 2c5.523 0 10 4.477 10 10s-4.477 10-10 10S2 17.523 2 12 6.477 2 12 2zm4.175 3.953c-.409 0-.76.234-.924.585l-2.42-.515a.291.291 0 0 0-.2.035.285.285 0 0 0-.116.164l-.737 3.486c-1.556.046-2.948.503-3.953 1.24a1.476 1.476 0 0 0-1.006-.41 1.463 1.463 0 0 0-.597 2.795c-.023.14-.035.293-.035.445 0 2.245 2.608 4.058 5.836 4.058s5.837-1.813 5.837-4.058c0-.152-.012-.293-.035-.433.48-.234.842-.749.842-1.345 0-.807-.655-1.462-1.462-1.462-.398 0-.749.152-1.006.41-.994-.714-2.374-1.182-3.895-1.24l.667-3.123 2.164.456a1.042 1.042 0 0 0 2.081-.047c0-.573-.467-1.04-1.04-1.04zm-1.672 9.45a.301.301 0 0 1-.023.386c-.714.714-2.07.76-2.468.76-.398 0-1.766-.058-2.468-.76a.275.275 0 0 1 0-.385.275.275 0 0 1 .386 0c.444.444 1.403.608 2.093.608s1.638-.164 2.094-.608a.275.275 0 0 1 .386 0zM9.708 12c.573 0 1.04.468 1.04 1.04 0 .574-.467 1.042-1.04 1.042s-1.041-.468-1.041-1.041S9.135 12 9.707 12zm4.584 0c.573 0 1.041.468 1.041 1.04 0 .574-.468 1.042-1.04 1.042-.574 0-1.042-.468-1.042-1.041S13.72 12 14.292 12z" fill="#000" fill-rule="nonzero"/>
        </g>
    </g>
</svg>
