<?xml version="1.0" encoding="UTF-8" standalone="no"?>
<svg
   xmlns:dc="http://purl.org/dc/elements/1.1/"
   xmlns:cc="http://creativecommons.org/ns#"
   xmlns:rdf="http://www.w3.org/1999/02/22-rdf-syntax-ns#"
   xmlns:svg="http://www.w3.org/2000/svg"
   xmlns="http://www.w3.org/2000/svg"
   id="svg17"
   version="1.1"
   viewBox="0 0 19.200001 19.200001"
   height="19.200001"
   width="19.200001">
  <metadata
     id="metadata23">
    <rdf:RDF>
      <cc:Work
         rdf:about="">
        <dc:format>image/svg+xml</dc:format>
        <dc:type
           rdf:resource="http://purl.org/dc/dcmitype/StillImage" />
        <dc:title>1DCF273E-D887-416A-93A6-F17740CB0B5B</dc:title>
      </cc:Work>
    </rdf:RDF>
  </metadata>
  <defs
     id="defs21" />
  <title
     id="title2">1DCF273E-D887-416A-93A6-F17740CB0B5B</title>
  <path
     d="m 9.5999999,0.7999999 -7.2,3.2 v 4.8 c 0,4.4400001 3.072,8.5920001 7.2,9.6000001 C 13.728,17.392 16.8,13.24 16.8,8.7999999 v -4.8 z m 5.6000001,8 C 15.2,10.28 14.792,11.72 14.096,12.968 l -1.16,-1.16 c 1.032,-1.552 0.856,-3.6640001 -0.512,-5.0320001 -1.56,-1.56 -4.0960001,-1.56 -5.6560001,0 -1.56,1.56 -1.56,4.0960001 0,5.6560001 C 8.1359999,13.8 10.248,13.968 11.8,12.944 l 1.376,1.376 c -0.952,1.136 -2.184,2.008 -3.5760001,2.432 -3.216,-1 -5.6,-4.336 -5.6,-7.9520001 v -3.76 l 5.6,-2.488 5.6000001,2.488 z M 9.5999999,12 c -1.328,0 -2.4,-1.072 -2.4,-2.4000001 0,-1.328 1.072,-2.4 2.4,-2.4 1.3280001,0 2.4000001,1.072 2.4000001,2.4 C 12,10.928 10.928,12 9.5999999,12 Z"
     id="Shape"
     style="fill:#000000;fill-rule:nonzero;stroke:none;stroke-width:1" />
</svg>
