<svg xmlns="http://www.w3.org/2000/svg" width="24" height="24" viewBox="0 0 24 24">
    <g fill="none" fill-rule="evenodd">
        <g>
            <path fill="#FFF" d="M0 0H24V24H0z"/>
            <g>
                <path d="M0 0L24 0 24 24 0 24z"/>
                <path fill="#000" fill-rule="nonzero" d="M23 4v13.867c0 1.067-.786 2.04-1.702 2.127l-.131.006H2.833c-.875 0-1.75-.972-1.827-1.988L1 17.867V4h22zm-2 7H3v6c0 .607.5 1 1 1h16c.458 0 1-.476 1-1v-6zm0-5H3v2h18V6z"/>
            </g>
        </g>
    </g>
</svg>
