<svg width="36" height="36" viewBox="0 0 36 36" xmlns="http://www.w3.org/2000/svg">
    <g transform="translate(-12 -12)" fill="none" fill-rule="evenodd">
        <path d="M12 12h36v36H12z"/>
        <path d="M24.75 22.5h18c.825 0 1.5-.675 1.5-1.5s-.675-1.5-1.5-1.5h-18c-.825 0-1.5.675-1.5 1.5s.675 1.5 1.5 1.5zm18 15h-18c-.825 0-1.5.675-1.5 1.5s.675 1.5 1.5 1.5h18c.825 0 1.5-.675 1.5-1.5s-.675-1.5-1.5-1.5zm0-9h-18c-.825 0-1.5.675-1.5 1.5s.675 1.5 1.5 1.5h18c.825 0 1.5-.675 1.5-1.5s-.675-1.5-1.5-1.5zM19.5 36h-3c-.42 0-.75.33-.75.75s.33.75.75.75h2.25v.75H18c-.42 0-.75.33-.75.75s.33.75.75.75h.75v.75H16.5c-.42 0-.75.33-.75.75s.33.75.75.75h3c.42 0 .75-.33.75-.75v-4.5c0-.42-.33-.75-.75-.75zm-3-16.5h.75v3.75c0 .42.33.75.75.75s.75-.33.75-.75v-4.5c0-.42-.33-.75-.75-.75h-1.5c-.42 0-.75.33-.75.75s.33.75.75.75zm3 7.5h-3c-.42 0-.75.33-.75.75s.33.75.75.75h1.95l-2.52 2.94a.736.736 0 0 0-.18.48v.33c0 .42.33.75.75.75h3c.42 0 .75-.33.75-.75s-.33-.75-.75-.75h-1.95l2.52-2.94a.736.736 0 0 0 .18-.48v-.33c0-.42-.33-.75-.75-.75z" fill="#000" fill-rule="nonzero"/>
        <circle cx="30" cy="30" r="30"/>
    </g>
</svg>
