<svg width="24" height="24" xmlns="http://www.w3.org/2000/svg">
    <defs>
        <filter color-interpolation-filters="auto" id="a">
            <feColorMatrix in="SourceGraphic" values="0 0 0 0 0.000000 0 0 0 0 0.000000 0 0 0 0 0.000000 0 0 0 0.600000 0"/>
        </filter>
    </defs>
    <g transform="translate(-8 -8)" fill="none" fill-rule="evenodd">
        <g filter="url(#a)">
            <path d="M8 8h24v24H8z"/>
            <path d="M11 25v2h6v-2h-6zm0-12v2h10v-2H11zm10 16v-2h8v-2h-8v-2h-2v6h2zm-6-12v2h-4v2h4v2h2v-6h-2zm14 4v-2H19v2h10zm-6-4h2v-2h4v-2h-4v-2h-2v6z" fill="#000" fill-rule="nonzero"/>
        </g>
        <circle cx="20" cy="20" r="20"/>
    </g>
</svg>
