<svg width="36" height="36" viewBox="0 0 36 36" xmlns="http://www.w3.org/2000/svg">
    <g transform="translate(-12 -12)" fill="none" fill-rule="evenodd">
        <path d="M12 12h36v36H12z"/>
        <path d="M41.025 27.06C40.005 21.885 35.46 18 30 18c-4.335 0-8.1 2.46-9.975 6.06A8.991 8.991 0 0 0 12 33c0 4.965 4.035 9 9 9h19.5c4.14 0 7.5-3.36 7.5-7.5 0-3.96-3.075-7.17-6.975-7.44zM40.5 39H21c-3.315 0-6-2.685-6-6 0-3.075 2.295-5.64 5.34-5.955l1.605-.165.75-1.425C24.12 22.71 26.91 21 30 21c3.93 0 7.32 2.79 8.085 6.645l.45 2.25 2.295.165A4.47 4.47 0 0 1 45 34.5c0 2.475-2.025 4.5-4.5 4.5zm-12.675-1.5h4.35V33H36l-6-6-6 6h3.825v4.5z" fill="#000" fill-rule="nonzero"/>
        <circle cx="30" cy="30" r="30"/>
    </g>
</svg>
