<?xml version="1.0" encoding="UTF-8"?>
<svg width="24px" height="24px" viewBox="0 0 24 24" version="1.1" xmlns="http://www.w3.org/2000/svg" xmlns:xlink="http://www.w3.org/1999/xlink">
    <title>IconArrowUp</title>
    <g id="Page-1" stroke="none" stroke-width="1" fill="none" fill-rule="evenodd">
        <g id="IconArrowUp" transform="translate(0.333000, 0.333000)">
            <polygon id="Path" points="18.667 4.667 18.667 18.667 4.667 18.667 4.667 4.667"></polygon>
            <path d="M12.25,15.75 L12.25,9.234 L15.097,12.081 C15.324,12.308 15.697,12.308 15.925,12.081 C16.0346166,11.9721188 16.0962608,11.8240021 16.0962608,11.6695 C16.0962608,11.5149979 16.0346166,11.3668812 15.925,11.258 L12.081,7.414 C11.9721188,7.30438339 11.8240021,7.24273922 11.6695,7.24273922 C11.5149979,7.24273922 11.3668812,7.30438339 11.258,7.414 L7.414,11.258 C7.26698521,11.4050148 7.2095694,11.6192935 7.26338055,11.8201195 C7.31719169,12.0209454 7.47405461,12.1778083 7.67488055,12.2316195 C7.87570648,12.2854306 8.08998521,12.2280148 8.237,12.081 L11.083,9.234 L11.083,15.75 C11.083,16.07 11.346,16.333 11.667,16.333 C11.987,16.333 12.25,16.071 12.25,15.75 L12.25,15.75 Z" id="Path" fill="#F74F18" fill-rule="nonzero"></path>
            <circle id="Oval" cx="11.667" cy="11.667" r="11.667"></circle>
        </g>
    </g>
</svg>