<svg width="24" height="24" xmlns="http://www.w3.org/2000/svg">
    <defs>
        <filter color-interpolation-filters="auto" id="a">
            <feColorMatrix in="SourceGraphic" values="0 0 0 0 0.000000 0 0 0 0 0.000000 0 0 0 0 0.000000 0 0 0 0.600000 0"/>
        </filter>
    </defs>
    <g fill="none" fill-rule="evenodd">
        <path d="M0 0h24v24H0z"/>
        <g filter="url(#a)">
            <g fill="#000">
                <path d="M22 12.227c0-.709-.065-1.39-.186-2.045h-9.61v3.868h5.492c-.237 1.25-.956 2.31-2.036 3.018v2.51h3.297c1.93-1.742 3.043-4.305 3.043-7.35z"/>
                <path d="M12.204 22c2.755 0 5.065-.895 6.753-2.423l-3.297-2.509c-.914.6-2.083.955-3.456.955-2.658 0-4.907-1.76-5.71-4.123H3.085v2.59c1.68 3.27 5.13 5.51 9.12 5.51z"/>
                <path d="M6.494 13.9c-.204-.6-.32-1.24-.32-1.9 0-.66.116-1.3.32-1.9V7.51H3.085a9.834 9.834 0 0 0 0 8.98l3.41-2.59z"/>
                <path d="M12.204 5.977c1.498 0 2.843.505 3.9 1.496l2.928-2.868C17.264 2.99 14.955 2 12.204 2c-3.989 0-7.44 2.24-9.119 5.51l3.41 2.59c.802-2.364 3.051-4.123 5.71-4.123z"/>
            </g>
        </g>
    </g>
</svg>
