<svg width="24" height="24" xmlns="http://www.w3.org/2000/svg">
    <defs>
        <filter color-interpolation-filters="auto" id="a">
            <feColorMatrix in="SourceGraphic" values="0 0 0 0 0.000000 0 0 0 0 0.000000 0 0 0 0 0.000000 0 0 0 0.600000 0"/>
        </filter>
    </defs>
    <g fill="none" fill-rule="evenodd">
        <path fill="#FFF" d="M0 0h24v24H0z"/>
        <path d="M0 0h24v24H0z"/>
        <g filter="url(#a)">
            <g fill="#FFF" fill-rule="nonzero">
                <path d="M22 16.547a4.89 4.89 0 0 1-.78 1.018 4.831 4.831 0 0 1-3.438 1.424h-2.126V22h2.126a4.19 4.19 0 0 0 2.983-1.235A4.19 4.19 0 0 0 22 17.782v-1.235z"/>
                <path d="M22 13.214a4.89 4.89 0 0 1-.78 1.017 4.831 4.831 0 0 1-3.438 1.425H12a1.344 1.344 0 0 0 0 2.688h5.782a4.19 4.19 0 0 0 2.983-1.235A4.19 4.19 0 0 0 22 14.127v-.913zM12 17.52a.521.521 0 1 1 0-1.042.521.521 0 0 1 0 1.042z"/>
                <path d="M22 6.218A4.223 4.223 0 0 0 17.782 2H6.218A4.223 4.223 0 0 0 2 6.218v11.564A4.223 4.223 0 0 0 6.218 22h8.793v-3.011H12a1.989 1.989 0 1 1 0-3.978h3.011V12H6.218a3.574 3.574 0 0 1-3.574-3.573V6.218c0-1.973 1.6-3.573 3.574-3.573h11.564c1.973 0 3.573 1.6 3.573 3.573v2.209c0 1.973-1.6 3.573-3.573 3.573h-2.126v3.011h2.126a4.19 4.19 0 0 0 2.983-1.235A4.19 4.19 0 0 0 22 10.794V6.218z"/>
            </g>
            <path d="M17.782 2.645c1.973 0 3.573 1.6 3.573 3.573v2.208c0 1.974-1.6 3.574-3.573 3.574H6.218a3.574 3.574 0 0 1-3.574-3.573V6.218c0-1.973 1.6-3.573 3.574-3.573h11.564z"/>
            <path d="M17.782 4.332c.85 0 1.57.565 1.805 1.34a.168.168 0 0 1-.169.214 8.971 8.971 0 0 1-4.409-1.363c-.087-.055-.047-.19.056-.19h2.717zM13.874 4.515a9.624 9.624 0 0 0 5.439 2.011c.198.01.355.171.355.37v1.272l-.003.197a.256.256 0 0 1-.265.251 11.736 11.736 0 0 1-8.529-4.092.116.116 0 0 1 .088-.192h2.382a.87.87 0 0 1 .533.183z" fill="#FFF" fill-rule="nonzero"/>
            <path d="M10.104 4.607a12.39 12.39 0 0 0 9.23 4.652.085.085 0 0 1 .071.127 1.888 1.888 0 0 1-1.623.926h-3.203a.918.918 0 0 1-.354-.069 14.568 14.568 0 0 1-6.74-5.732.117.117 0 0 1 .1-.179h1.947c.222 0 .432.102.572.275z" fill="#FFF" fill-rule="nonzero"/>
            <path d="M6.218 4.332h.228c.112 0 .215.06.272.157a15.244 15.244 0 0 0 5.83 5.663c.078.042.048.16-.04.16H9.573c-.347 0-.684-.12-.947-.345a17.332 17.332 0 0 1-3.844-4.66.307.307 0 0 1 .04-.357c.345-.38.843-.618 1.395-.618zM7.817 10.113a.114.114 0 0 1-.076.2H6.197a1.888 1.888 0 0 1-1.865-1.887V6.09c0-.076.1-.104.14-.039a17.977 17.977 0 0 0 3.345 4.062z" fill="#FFF" fill-rule="nonzero"/>
        </g>
    </g>
</svg>
