<svg width="34" height="34" viewBox="0 0 34 34" xmlns="http://www.w3.org/2000/svg">
    <g transform="translate(.333 .333)" fill="none" fill-rule="evenodd">
        <path d="M6.667 6.667h20v20h-20z"/>
        <path d="M16.667 8.333a8.336 8.336 0 0 0-8.334 8.334c0 4.6 3.734 8.333 8.334 8.333S25 21.267 25 16.667s-3.733-8.334-8.333-8.334zm0 15A6.676 6.676 0 0 1 10 16.667 6.676 6.676 0 0 1 16.667 10a6.676 6.676 0 0 1 6.666 6.667 6.676 6.676 0 0 1-6.666 6.666zM15.833 20H17.5v1.667h-1.667V20zm1.342-8.3a3.335 3.335 0 0 0-3.692 2.325.756.756 0 0 0 .725.975h.167c.342 0 .617-.242.733-.558a1.668 1.668 0 0 1 1.917-1.067c.792.167 1.375.942 1.308 1.75-.083 1.117-1.35 1.358-2.041 2.4 0 .008-.009.008-.009.017-.008.016-.016.025-.025.041-.075.125-.15.267-.208.417-.008.025-.025.042-.033.067-.009.016-.009.033-.017.058-.1.283-.167.625-.167 1.042H17.5c0-.35.092-.642.233-.892.017-.025.025-.05.042-.075.067-.117.15-.225.233-.325.009-.008.017-.025.025-.033.084-.1.175-.192.275-.284.8-.758 1.884-1.375 1.659-2.966-.2-1.45-1.342-2.675-2.792-2.892z" fill-opacity=".6" fill="#000" fill-rule="nonzero"/>
        <circle fill-opacity=".16" fill="#000" cx="16.667" cy="16.667" r="16.667"/>
    </g>
</svg>
