<svg xmlns="http://www.w3.org/2000/svg" width="24" height="24" viewBox="0 0 24 24">
    <g fill="none" fill-rule="evenodd">
        <g>
            <path fill="#FFF" d="M0 0H24V24H0z"/>
            <g>
                <path d="M0 0L24 0 24 24 0 24z"/>
                <path fill="#000" d="M2 7.428c0 2.175 1.622 3.99 3.744 4.357v8.635c0 .32.264.58.589.58H17.67c.324 0 .588-.26.588-.58v-8.635C20.38 11.417 22 9.603 22 7.428 22 4.983 19.956 3 17.46 3c-1.021 0-1.97.33-2.73.888C13.97 3.33 13.023 3 12.002 3c-1.021 0-1.97.33-2.73.888C8.51 3.33 7.564 3 6.543 3 4.047 3 2 4.983 2 7.428zM9.154 5.71c.206.187.526.187.731 0 .545-.5 1.284-.806 2.105-.806.822 0 1.558.306 2.106.806.206.187.526.187.731 0 .545-.5 1.284-.806 2.106-.806 1.692 0 3.045 1.296 3.045 2.905 0 1.554-1.268 2.819-2.882 2.898-.283.014-.505.24-.505.515v7.883h-1.885v-5.5c.002-.187-.099-.36-.264-.454-.166-.094-.372-.094-.537 0-.166.094-.267.267-.265.453V19h-1.118v-5.396c.002-.186-.098-.36-.264-.453-.166-.094-.371-.094-.537 0-.166.094-.267.267-.264.453V19h-1.12v-5.394c.004-.186-.097-.361-.263-.455-.166-.094-.371-.094-.537 0-.166.094-.267.268-.264.454V19H7.39v-7.778c0-.275-.222-.501-.505-.515C5.27 10.627 4 9.362 4 7.81c0-1.608 1.356-2.905 3.048-2.905.822 0 1.558.306 2.106.806z"/>
            </g>
        </g>
    </g>
</svg>
