<svg width="24" height="24" xmlns="http://www.w3.org/2000/svg" style="background:#f9f9f9">
    <defs>
        <filter color-interpolation-filters="auto" id="a">
            <feColorMatrix in="SourceGraphic" values="0 0 0 0 0.000000 0 0 0 0 0.000000 0 0 0 0 0.000000 0 0 0 0.600000 0"/>
        </filter>
    </defs>
    <g fill="none" fill-rule="evenodd">
        <path fill="#F9F9F9" d="M0 0h24v24H0z"/>
        <g filter="url(#a)">
            <path d="M5.93 4.264 2.517 9.026c-.171.24-.15.6.046.818l8.964 9.956c.24.267.708.267.948 0l8.964-9.956a.677.677 0 0 0 .046-.818L18.07 4.264A.648.648 0 0 0 17.55 4H6.451a.667.667 0 0 0-.52.264zm1.455 1.035h3.268L8.438 8.045 7.385 5.299zm5.969 0h3.255l-1.047 2.739-2.208-2.74zm-1.36.372 2.494 3.09H9.506l2.487-3.09zm-5.71.318 1.06 2.773H4.297l1.988-2.773zm11.432 0 1.988 2.773h-3.042l1.054-2.773zM4.49 10.06h3.348l2.475 6.466L4.49 10.06zm4.715 0h5.583L12 17.352 9.205 10.06zm6.957 0h3.348l-5.816 6.46 2.468-6.46z" fill="#000" fill-rule="nonzero"/>
        </g>
    </g>
</svg>
