<svg xmlns="http://www.w3.org/2000/svg" width="34" height="24" viewBox="0 0 34 24" style="background:#181818">
    <g fill="none" fill-rule="evenodd">
        <g>
            <path d="M0 0H34V24H0z"/>
            <g>
                <path d="M0 0L34 0 34 24 0 24z"/>
                <path fill="#F74F18" d="M25 4H9c-4.416 0-8 3.584-8 8s3.584 8 8 8h16c4.416 0 8-3.584 8-8s-3.584-8-8-8zm0 12.8c-2.656 0-4.8-2.144-4.8-4.8 0-2.656 2.144-4.8 4.8-4.8 2.656 0 4.8 2.144 4.8 4.8 0 2.656-2.144 4.8-4.8 4.8z"/>
            </g>
            <circle cx="25" cy="12" r="20"/>
        </g>
    </g>
</svg>
