<svg width="24" height="24" xmlns="http://www.w3.org/2000/svg">
    <g fill="none" fill-rule="evenodd">
        <path d="M0 0h24v24H0z"/>
        <path d="M18.93 5.743a16.69 16.69 0 0 0-4.07-1.242.062.062 0 0 0-.066.03c-.175.308-.37.71-.506 1.025a15.471 15.471 0 0 0-4.573 0A10.3 10.3 0 0 0 9.2 4.531a.065.065 0 0 0-.065-.03 16.643 16.643 0 0 0-4.07 1.242.058.058 0 0 0-.028.023c-2.593 3.812-3.303 7.53-2.954 11.201a.067.067 0 0 0 .026.046 16.692 16.692 0 0 0 4.994 2.484.065.065 0 0 0 .07-.022c.385-.517.728-1.062 1.022-1.636a.062.062 0 0 0-.035-.086 11.001 11.001 0 0 1-1.56-.732.063.063 0 0 1-.007-.105c.105-.077.21-.157.31-.239a.063.063 0 0 1 .065-.008c3.273 1.47 6.817 1.47 10.051 0a.062.062 0 0 1 .066.008c.1.08.205.162.31.24a.063.063 0 0 1-.005.104c-.499.287-1.017.529-1.561.731a.062.062 0 0 0-.034.087c.3.573.643 1.118 1.02 1.635a.064.064 0 0 0 .07.023 16.636 16.636 0 0 0 5.003-2.484.063.063 0 0 0 .026-.045c.417-4.245-.699-7.932-2.957-11.201a.05.05 0 0 0-.026-.024zM8.684 14.731c-.985 0-1.797-.89-1.797-1.983s.796-1.983 1.797-1.983c1.01 0 1.814.898 1.798 1.983 0 1.093-.796 1.983-1.798 1.983zm6.646 0c-.985 0-1.797-.89-1.797-1.983s.796-1.983 1.797-1.983c1.009 0 1.813.898 1.797 1.983 0 1.093-.788 1.983-1.797 1.983z" fill="#5865F2" fill-rule="nonzero"/>
    </g>
</svg>
