<svg width="24" height="24" xmlns="http://www.w3.org/2000/svg">
    <g fill="none" fill-rule="evenodd">
        <path d="M0 0h24v24H0z"/>
        <g fill-rule="nonzero">
            <path fill="#E24329" d="m12 21 3.684-11.075H8.32z"/>
            <path d="M3.16 9.926 2.036 13.29a.736.736 0 0 0 .276.833L12 21 3.16 9.926z" fill="#FCA326"/>
            <path d="M3.16 9.926h5.16L6.1 3.256c-.115-.341-.61-.341-.728 0L3.16 9.926z" fill="#E24329"/>
            <path d="m20.845 9.926 1.118 3.364a.736.736 0 0 1-.276.833L11.999 21l8.846-11.074z" fill="#FCA326"/>
            <path d="M20.845 9.926h-5.161l2.217-6.67c.114-.341.609-.341.727 0l2.217 6.67z" fill="#E24329"/>
            <path fill="#FC6D26" d="m12 21 3.684-11.074h5.16zM12 21 3.16 9.926h5.16z"/>
        </g>
    </g>
</svg>
