<svg width="24" height="24" xmlns="http://www.w3.org/2000/svg">
    <g fill="none" fill-rule="evenodd">
        <path d="M0 0h24v24H0z"/>
        <g transform="translate(2 2)" fill-rule="nonzero">
            <circle fill="#FF4500" cx="10" cy="10" r="10"/>
            <path d="M16.667 10c0-.807-.655-1.462-1.462-1.462-.398 0-.749.152-1.006.41-.994-.714-2.374-1.182-3.895-1.24l.667-3.123 2.164.456a1.042 1.042 0 0 0 2.081-.047c0-.573-.467-1.04-1.04-1.04-.41 0-.76.233-.925.584l-2.42-.515a.291.291 0 0 0-.2.035.285.285 0 0 0-.116.164l-.737 3.486c-1.556.046-2.948.503-3.953 1.24a1.476 1.476 0 0 0-1.006-.41 1.463 1.463 0 0 0-.597 2.795c-.023.14-.035.293-.035.445 0 2.245 2.608 4.058 5.836 4.058s5.837-1.813 5.837-4.058c0-.152-.012-.293-.035-.433.48-.234.842-.749.842-1.345zm-10 1.04c0-.572.468-1.04 1.04-1.04.574 0 1.042.468 1.042 1.04 0 .574-.468 1.042-1.041 1.042s-1.041-.468-1.041-1.041zm5.813 2.75c-.714.713-2.07.76-2.468.76-.398 0-1.766-.059-2.468-.76a.275.275 0 0 1 0-.386.275.275 0 0 1 .386 0c.444.444 1.403.608 2.093.608s1.638-.164 2.094-.608a.275.275 0 0 1 .386 0 .301.301 0 0 1-.023.385zm-.188-1.708c-.573 0-1.04-.468-1.04-1.041S11.718 10 12.291 10s1.041.468 1.041 1.04c0 .574-.468 1.042-1.04 1.042z" fill="#FFF"/>
        </g>
    </g>
</svg>
