<svg width="24" height="24" xmlns="http://www.w3.org/2000/svg">
    <g fill="none" fill-rule="evenodd">
        <path d="M0 0h24v24H0z"/>
        <path d="M19.952 7.983c.013.174.013.347.013.523C19.965 13.844 15.837 20 8.29 20v-.003A11.75 11.75 0 0 1 2 18.186a8.322 8.322 0 0 0 6.073-1.674c-1.756-.033-3.296-1.16-3.834-2.806a4.152 4.152 0 0 0 1.853-.07C4.178 13.256 2.8 11.6 2.8 9.676v-.05c.57.312 1.21.486 1.863.505a4.007 4.007 0 0 1-1.27-5.394 11.708 11.708 0 0 0 8.456 4.22 4.003 4.003 0 0 1 1.187-3.86 4.153 4.153 0 0 1 5.806.176c.919-.178 1.8-.51 2.605-.98a4.067 4.067 0 0 1-1.803 2.233A8.26 8.26 0 0 0 22 5.89a8.266 8.266 0 0 1-2.048 2.093z" fill="#1D9BF0" fill-rule="nonzero"/>
    </g>
</svg>
