<svg width="200" height="41" viewBox="0 0 153 32" fill="none" xmlns="http://www.w3.org/2000/svg">
<path d="M61.3226 8.80078V24.3115H57.8661V22.3363C57.2851 23.0334 56.559 23.5707 55.6876 23.9484C54.8162 24.326 53.8768 24.5147 52.8702 24.5147C50.7979 24.5147 49.1668 23.9388 47.9758 22.7865C46.7849 21.6347 46.1895 19.9255 46.1895 17.6599V8.80078H49.8203V17.1661C49.8203 18.5603 50.1348 19.6015 50.7643 20.2886C51.3933 20.9762 52.2892 21.3197 53.4511 21.3197C54.7481 21.3197 55.7793 20.918 56.5444 20.1143C57.3092 19.311 57.6918 18.1537 57.6918 16.6433V8.80078H61.3226V8.80078Z" fill="black"/>
<path d="M91.0368 10.3242C92.1791 11.457 92.7505 13.1562 92.7505 15.4218V24.3099H89.1197V15.8865C89.1197 14.5313 88.8193 13.5097 88.2193 12.8221C87.6188 12.135 86.757 11.7911 85.6342 11.7911C84.4143 11.7911 83.4363 12.1932 82.7006 12.9965C81.9644 13.8002 81.5968 14.9476 81.5968 16.4384V24.3099H77.966V15.8865C77.966 14.5313 77.6656 13.5097 77.0656 12.8221C76.4652 12.135 75.6032 11.7911 74.4804 11.7911C73.241 11.7911 72.2584 12.1882 71.5322 12.9819C70.8061 13.7762 70.443 14.928 70.443 16.4384V24.3099H66.8122V8.79926H70.2687V10.7744C70.8497 10.0773 71.5758 9.54498 72.4472 9.1769C73.3186 8.80928 74.2867 8.625 75.3518 8.625C76.5137 8.625 77.5449 8.84285 78.4453 9.27854C79.3457 9.71423 80.0574 10.3582 80.5801 11.2101C81.2192 10.3968 82.042 9.76283 83.0491 9.30757C84.0558 8.85287 85.1695 8.625 86.3894 8.625C88.345 8.625 89.894 9.19136 91.0368 10.3242Z" fill="black"/>
<path d="M109.292 10.2661C110.502 11.3604 111.108 13.011 111.108 15.2184V24.3099H107.68V22.4219C107.234 23.1 106.6 23.6178 105.778 23.9759C104.954 24.334 103.962 24.5132 102.8 24.5132C101.639 24.5132 100.622 24.3145 99.7505 23.9178C98.8791 23.5212 98.206 22.9693 97.7318 22.2621C97.257 21.5556 97.0202 20.7568 97.0202 19.8658C97.0202 18.4717 97.538 17.3534 98.5741 16.5111C99.6098 15.6687 101.241 15.2476 103.468 15.2476H107.477V15.0152C107.477 13.9309 107.152 13.0981 106.504 12.5172C105.855 11.9363 104.892 11.6458 103.614 11.6458C102.742 11.6458 101.885 11.7815 101.043 12.0525C100.201 12.3238 99.4891 12.7015 98.9082 13.1852L97.4849 10.542C98.2982 9.92253 99.2758 9.44826 100.419 9.11875C101.561 8.78971 102.771 8.625 104.049 8.625C106.334 8.625 108.082 9.17236 109.292 10.2661ZM105.981 21.2455C106.688 20.8294 107.186 20.2339 107.477 19.4593V17.6583H103.73C101.639 17.6583 100.593 18.3459 100.593 19.7206C100.593 20.3792 100.854 20.902 101.377 21.2891C101.9 21.6767 102.626 21.87 103.556 21.87C104.466 21.87 105.274 21.6622 105.981 21.2455Z" fill="black"/>
<path d="M140.705 10.3242C141.848 11.457 142.419 13.1562 142.419 15.4218V24.3099H138.788V15.8865C138.788 14.5313 138.488 13.5097 137.888 12.8221C137.287 12.135 136.426 11.7911 135.303 11.7911C134.083 11.7911 133.105 12.1932 132.369 12.9965C131.633 13.8002 131.265 14.9476 131.265 16.4384V24.3099H127.635V15.8865C127.635 14.5313 127.334 13.5097 126.734 12.8221C126.134 12.135 125.272 11.7911 124.149 11.7911C122.91 11.7911 121.927 12.1882 121.201 12.9819C120.475 13.7762 120.112 14.928 120.112 16.4384V24.3099H116.481V8.79926H119.937V10.7744C120.518 10.0773 121.244 9.54498 122.116 9.1769C122.987 8.80928 123.955 8.625 125.02 8.625C126.182 8.625 127.213 8.84285 128.114 9.27854C129.014 9.71423 129.726 10.3582 130.249 11.2101C130.888 10.3968 131.711 9.76283 132.718 9.30757C133.724 8.85287 134.838 8.625 136.058 8.625C138.014 8.625 139.563 9.19136 140.705 10.3242Z" fill="black"/>
<path d="M147.967 5.61913C147.521 5.20292 147.299 4.68506 147.299 4.06518C147.299 3.44568 147.521 2.92782 147.967 2.51114C148.412 2.09502 148.964 1.88672 149.622 1.88672C150.28 1.88672 150.832 2.08547 151.278 2.48211C151.723 2.87922 151.946 3.37798 151.946 3.97801C151.946 4.61698 151.728 5.15441 151.293 5.59011C150.857 6.0258 150.3 6.24365 149.622 6.24365C148.964 6.24365 148.412 6.03573 147.967 5.61913ZM147.792 8.79965H151.423V24.3103H147.792V8.79965Z" fill="black"/>
<path d="M31.9906 23.2695C31.6522 23.8569 31.2361 24.4043 30.744 24.8966C29.2752 26.3652 27.3225 27.174 25.2456 27.174H21.8457V31.9889H23.8001H25.2457C27.0474 31.9889 28.7412 31.2873 30.0152 30.0133C31.2892 28.7393 31.9907 27.0454 31.9906 25.2439V23.2695Z" fill="black"/>
<path d="M31.9906 17.9414C31.6522 18.5288 31.2361 19.0762 30.7439 19.5684C29.2752 21.0371 27.3225 21.8459 25.2456 21.8459H15.9995C14.8123 21.8461 13.8501 22.8085 13.8501 23.9957C13.8501 25.1829 14.8123 26.1453 15.9995 26.1455H25.2457C27.0473 26.1455 28.7411 25.444 30.0151 24.17C31.2887 22.8964 31.9903 21.203 31.9906 19.4019V17.9414ZM16 24.8294C15.5395 24.8294 15.1662 24.4561 15.1662 23.9956C15.1662 23.5352 15.5395 23.1618 16 23.1618C16.4605 23.1618 16.8338 23.5352 16.8338 23.9956C16.8338 24.4561 16.4605 24.8294 16 24.8294Z" fill="black"/>
<path d="M31.9906 6.75282C31.9906 3.03355 28.9648 0.0078125 25.2455 0.0078125H6.75456C3.03529 0.0078125 0.00946045 3.03355 0.00946045 6.75282V25.2441C0.00946045 28.9634 3.03529 31.9891 6.75447 31.9891H20.8148V27.1743H15.9995C14.2429 27.1743 12.819 25.7504 12.819 23.9939C12.819 22.2374 14.2429 20.8135 15.9995 20.8135H20.8148V15.9983H6.75447V15.9986C3.59844 15.9986 1.03998 13.4402 1.03998 10.2842V6.75292C1.03998 3.59698 3.59844 1.03852 6.75447 1.03852H25.2454C28.4014 1.03852 30.9598 3.59698 30.9598 6.75292V10.2842L30.96 10.2841C30.96 13.4402 28.4016 15.9986 25.2456 15.9986L25.2457 15.9983H21.8457V20.8135H25.2457C27.0474 20.8135 28.7412 20.1119 30.0151 18.8379C31.2887 17.5643 31.9903 15.871 31.9906 14.0699V6.75282Z" fill="black"/>
<path d="M25.2454 1.03906C28.4014 1.03906 30.9598 3.59749 30.9598 6.7535V10.2847L30.96 10.2847C30.96 13.4407 28.4015 15.9991 25.2455 15.9991L25.2456 15.9989H6.75442L6.75438 15.9991C3.5984 15.9991 1.03996 13.4407 1.03996 10.2848V6.75352C1.03996 3.59749 3.5984 1.03906 6.75442 1.03906H25.2454Z" fill="white"/>
<path d="M25.2453 3.73828C26.6044 3.73828 27.7568 4.64149 28.1319 5.87961C28.1851 6.05544 28.0453 6.22974 27.8617 6.2223C25.2809 6.1177 22.8726 5.33364 20.8122 4.04344C20.672 3.95563 20.7359 3.73828 20.9013 3.73828L25.2453 3.73828Z" fill="#F74F18"/>
<path d="M18.9961 4.03032C21.4257 5.91244 24.4282 7.08782 27.6937 7.24632C28.0107 7.2617 28.2613 7.51999 28.2613 7.83738V9.87223C28.2608 9.91439 28.2595 10.0465 28.2572 10.1875C28.2537 10.4165 28.0625 10.5965 27.8337 10.5892C22.3881 10.4134 17.5212 7.90983 14.1954 4.04431C14.0922 3.92429 14.1767 3.73828 14.335 3.73828L18.1436 3.73828C18.4524 3.73828 18.752 3.84124 18.9961 4.03032Z" fill="#F74F18"/>
<path d="M12.9675 4.17841C16.465 8.54226 21.7651 11.4024 27.7285 11.6166C27.831 11.6203 27.8938 11.7318 27.8415 11.82C27.3156 12.706 26.3487 13.3012 25.2454 13.3012L20.1235 13.3012C19.9298 13.3012 19.7374 13.2646 19.5586 13.19C15.0857 11.3254 11.3178 8.09568 8.77912 4.02411C8.70154 3.89969 8.79245 3.73828 8.93908 3.73828L12.053 3.73828C12.409 3.73828 12.7449 3.90065 12.9675 4.17841Z" fill="#F74F18"/>
<path d="M6.75453 3.73828H7.11824C7.29765 3.73828 7.4624 3.83445 7.55309 3.98926C9.77821 7.78768 13.0084 10.929 16.8771 13.0441C17.0018 13.1123 16.9535 13.3012 16.8114 13.3012H12.1202C11.5662 13.3012 11.0275 13.1088 10.606 12.7494C8.1464 10.6523 6.05915 8.1297 4.45901 5.29706C4.3552 5.11327 4.38155 4.88227 4.52362 4.72616C5.07601 4.11922 5.87105 3.73828 6.75453 3.73828Z" fill="#F74F18"/>
<path d="M9.31184 12.9832C9.43596 13.0954 9.35618 13.3014 9.18887 13.3014H6.72067C5.07274 13.283 3.73853 11.9372 3.73853 10.2855V6.75436L3.73871 6.54984C3.73883 6.42861 3.89845 6.3838 3.96098 6.48766C5.41859 8.90876 7.22544 11.0974 9.31184 12.9832Z" fill="#F74F18"/>
</svg>
